# xmcd
#
# Track frame offsets:
#	150
#	20873
#	31106
#	47719
#	63836
#	77988
#	96660
#	115933
#	131926
#	143349
#	150936
#
# Disc length: 2223 seconds
#
# Revision: 0
# Processed by: cddbd v1.5.2PL0 Copyright (c) Steve Scherf et al.
# Submitted via: audiograbber 1.83.01
#
DISCID=8f08ad0b
DTITLE=Zac Brown - The Other Man
DYEAR=2014
DGENRE=Country
TTITLE0=Strafing
TTITLE1=Your Face Is A Zoo
TTITLE2=Clever
TTITLE3=Col. Mustard's Sec Mercedes
TTITLE4=Ready And Willing
TTITLE5=The Talisman
TTITLE6=I'm Turning Blue
TTITLE7=Tic Tac Toe
TTITLE8=True Romance
TTITLE9=A Place For Us
TTITLE10=Leaving El Paso
EXTD=
EXTT0=
EXTT1=
EXTT2=
EXTT3=
EXTT4=
EXTT5=
EXTT6=
EXTT7=
EXTT8=
EXTT9=
EXTT10=
PLAYORDER=
